<?xml version="1.0" encoding="utf-8"?>
<!-- Generator: Adobe Illustrator 25.0.0, SVG Export Plug-In . SVG Version: 6.00 Build 0)  -->
<svg version="1.1" id="SHL_x5F_logo" xmlns="http://www.w3.org/2000/svg" xmlns:xlink="http://www.w3.org/1999/xlink" x="0px"
	 y="0px" viewBox="0 0 597.5 220.5" style="enable-background:new 0 0 597.5 220.5;" xml:space="preserve">
<style type="text/css">
	.st0{fill:#78D64B;}
	.st1{fill:#5B6770;}
</style>
<g>
	<circle class="st0" cx="16.6" cy="203.9" r="16.6"/>
	<circle class="st0" cx="580.9" cy="203.9" r="16.6"/>
	<path class="st0" d="M324.3,124.2H281c-7.7,0-14-6.3-14-14s6.3-14,14-14h43.3c7.7,0,14,6.3,14,14S332,124.2,324.3,124.2z"/>
	<path class="st1" d="M196.6,1.5h-69.5c-33.5,0-60.8,27.3-60.8,60.8c0,30.6,19.8,53.2,52.1,59.8c0.8,0.3,1.6,0.5,2.4,0.7
		c29.8,5.6,33.1,24.9,33.1,33c0,18.1-14.7,32.8-32.8,32.8H63.9c-7.7,0-14,6.3-14,14s6.3,14,14,14h57.2c33.5,0,60.8-27.3,60.8-60.8
		c0-16-5.9-30.2-16.9-41.2c-8.9-8.8-20.8-15.1-34.6-18.4c-1-0.4-2.2-0.8-3.3-1c-27-4.3-32.7-20.3-32.7-32.9
		c0-18.1,14.7-32.8,32.8-32.8h69.5c7.7,0,14-6.3,14-14S204.4,1.5,196.6,1.5z"/>
	<path class="st1" d="M246.4,220.5c-7.7,0-14-6.3-14-14V14c0-7.7,6.3-14,14-14s14,6.3,14,14v192.5
		C260.4,214.3,254.2,220.5,246.4,220.5z"/>
	<path class="st1" d="M358.3,220.5c-7.7,0-14-6.3-14-14V14c0-7.7,6.3-14,14-14s14,6.3,14,14v192.5
		C372.3,214.3,366,220.5,358.3,220.5z"/>
	<path class="st1" d="M535.6,216.2h-55.9c-33.5,0-60.8-27.3-60.8-60.8V15.2c0-7.7,6.3-14,14-14s14,6.3,14,14v140.3
		c0,18.1,14.7,32.8,32.8,32.8h55.9c7.7,0,14,6.3,14,14S543.3,216.2,535.6,216.2z"/>
</g>
</svg>
